<?xml version="1.0" encoding="UTF-8" standalone="no"?>
<!-- Created with Inkscape (http://www.inkscape.org/) -->

<svg
   xmlns:dc="http://purl.org/dc/elements/1.1/"
   xmlns:cc="http://creativecommons.org/ns#"
   xmlns:rdf="http://www.w3.org/1999/02/22-rdf-syntax-ns#"
   xmlns:svg="http://www.w3.org/2000/svg"
   xmlns="http://www.w3.org/2000/svg"
   xmlns:sodipodi="http://sodipodi.sourceforge.net/DTD/sodipodi-0.dtd"
   xmlns:inkscape="http://www.inkscape.org/namespaces/inkscape"
   width="201.75429mm"
   height="73.388237mm"
   viewBox="0 0 201.75429 73.388237"
   version="1.1"
   id="svg8"
   inkscape:version="0.92.3 (2405546, 2018-03-11)"
   sodipodi:docname="drawing.svg">
  <defs
     id="defs2" />
  <sodipodi:namedview
     id="base"
     pagecolor="#ffffff"
     bordercolor="#666666"
     borderopacity="1.0"
     inkscape:pageopacity="0.0"
     inkscape:pageshadow="2"
     inkscape:zoom="0.94236332"
     inkscape:cx="241.5436"
     inkscape:cy="188.32988"
     inkscape:document-units="mm"
     inkscape:current-layer="layer1"
     showgrid="false"
     inkscape:window-width="1920"
     inkscape:window-height="1052"
     inkscape:window-x="3840"
     inkscape:window-y="0"
     inkscape:window-maximized="1" />
  <metadata
     id="metadata5">
    <rdf:RDF>
      <cc:Work
         rdf:about="">
        <dc:format>image/svg+xml</dc:format>
        <dc:type
           rdf:resource="http://purl.org/dc/dcmitype/StillImage" />
        <dc:title></dc:title>
      </cc:Work>
    </rdf:RDF>
  </metadata>
  <g
     inkscape:label="Layer 1"
     inkscape:groupmode="layer"
     id="layer1"
     transform="translate(-6.1438537,-3.3499631)">
    <path
       style="fill:#000000;stroke-width:0.15715131"
       d="m 15.28242,76.597796 c 0,-0.07723 0.360597,-0.461815 0.801328,-0.854649 0.44073,-0.392839 1.032581,-1.019077 1.315224,-1.391655 0.282642,-0.372572 0.638462,-0.769881 0.79071,-0.882915 0.152248,-0.113033 0.497815,-0.577384 0.767927,-1.031891 0.270112,-0.454515 0.665954,-1.041319 0.879648,-1.304021 0.56917,-0.69969 1.932373,-3.846097 2.092246,-4.829115 0.08076,-0.496607 0.450124,-1.420002 0.891806,-2.229523 1.56922,-2.876071 2.098057,-4.411076 2.16591,-6.286772 0.02262,-0.625177 0.160562,-1.114005 0.461388,-1.634984 0.236019,-0.408743 0.544735,-1.144487 0.686031,-1.634979 0.1413,-0.490498 0.381664,-1.326569 0.534146,-1.85794 0.15248,-0.531367 0.374856,-1.166779 0.49417,-1.412031 0.411996,-0.846855 0.747303,-1.912451 0.747303,-2.374908 0,-0.255209 0.07451,-0.530665 0.165568,-0.612125 0.09106,-0.08146 0.214159,-0.760496 0.273549,-1.508966 0.09045,-1.139817 0.06225,-1.423291 -0.173549,-1.745225 -0.264035,-0.360475 -0.264219,-0.441754 -0.003,-1.307664 0.153202,-0.507814 0.315728,-1.123954 0.36117,-1.369202 0.104579,-0.564409 0.329287,-0.817491 0.72584,-0.817491 0.493587,0 0.365539,-0.263692 -0.311118,-0.640692 -0.952976,-0.530952 -1.124949,-0.556925 -2.500233,-0.377633 -1.3148,0.171408 -2.293391,0.514216 -2.690854,0.942628 -0.142058,0.15312 -0.445869,0.234446 -0.819664,0.219414 -1.508633,-0.06066 -1.341251,-0.232815 -2.172583,2.23444 -0.289221,0.858366 -0.640733,1.842029 -0.781137,2.185918 -0.336583,0.824392 -0.181067,1.355748 0.454836,1.554049 0.270946,0.08449 0.492625,0.246919 0.492625,0.360953 0,0.114034 -0.569365,0.759626 -1.265255,1.434649 -0.69589,0.675026 -1.495278,1.528303 -1.776416,1.896177 -0.281139,0.367871 -1.479677,1.519295 -2.663419,2.558725 -1.99218,1.749312 -2.931632,2.88217 -2.685521,3.238397 0.10122,0.14651 -0.534149,2.020366 -0.828038,2.442084 -0.665164,0.95449 -1.852874,5.211517 -1.695108,6.075665 0.180289,0.987513 0.598721,2.221457 0.83352,2.458019 0.134175,0.13519 0.352205,0.480481 0.48451,0.767326 0.352494,0.764214 1.454801,1.39311 2.60292,1.485043 l 0.928122,0.07432 -0.469167,0.398776 c -0.6268,0.532753 -1.719206,0.724995 -3.335115,0.586923 C 9.6477561,71.286009 9.7733307,71.362605 7.9567278,69.512713 7.7871528,69.340035 7.3098852,69.113963 6.8961324,69.010331 6.4823789,68.906709 6.1438537,68.751388 6.1438537,68.665193 c 0,-0.08621 0.1076117,-0.528984 0.2391375,-0.983966 0.4494814,-1.554882 0.7501667,-3.650406 0.8155395,-5.683618 0.057689,-1.794268 0.029073,-2.081516 -0.2443377,-2.452474 -0.4269609,-0.579288 -0.3942353,-0.798906 0.2281349,-1.530965 0.5639746,-0.663376 1.7899582,-2.145339 2.7831086,-3.364217 0.3198505,-0.392542 0.8485345,-0.984292 1.1748545,-1.315001 0.326321,-0.330702 0.762882,-0.852872 0.970134,-1.160379 0.207254,-0.307502 0.637599,-0.838312 0.956323,-1.17957 0.494201,-0.529147 0.563987,-0.694454 0.474099,-1.123072 -0.110605,-0.527402 0.184074,-1.579041 0.73912,-2.63775 0.171434,-0.326997 0.579273,-1.101172 0.906309,-1.720387 0.327037,-0.619217 0.594613,-1.266998 0.594613,-1.439514 0,-0.172515 0.0705,-0.479543 0.156668,-0.682283 0.224369,-0.527904 -0.09844,-0.582223 -1.234759,-0.207772 -0.687512,0.226556 -1.024533,0.271249 -1.223158,0.162207 -0.150791,-0.08278 -0.909711,-0.161735 -1.68649,-0.175453 L 10.380827,43.146041 9.7642824,42.56387 C 8.588224,41.45338 8.7424855,40.646907 10.021646,41.218386 c 1.036714,0.463162 2.79045,0.367916 3.756585,-0.204022 0.360906,-0.213651 0.977839,-0.432412 1.370963,-0.48614 0.85462,-0.116796 1.296318,-0.301101 1.296318,-0.540911 0,-0.09694 0.423066,-0.558697 0.940146,-1.02613 0.93984,-0.849601 0.94018,-0.850242 1.042131,-1.965229 0.07933,-0.867592 0.184216,-1.193654 0.472176,-1.467852 0.203607,-0.193876 0.370195,-0.450358 0.370195,-0.569959 0,-0.119604 0.113162,-0.361986 0.251472,-0.538628 0.299248,-0.382186 0.80967,-1.847618 1.076013,-3.08926 0.105215,-0.490495 0.307121,-1.173189 0.448678,-1.517095 0.34394,-0.835582 0.181016,-1.64188 -0.369604,-1.829149 -0.496497,-0.168863 -0.413444,-0.456729 0.342498,-1.18712 0.296132,-0.286122 0.743717,-0.821207 0.994633,-1.189078 0.250916,-0.367871 0.801708,-0.970972 1.223979,-1.340226 1.570457,-1.373275 3.709357,-4.440932 4.362372,-6.256609 0.12484,-0.347107 0.311231,-0.655444 0.414204,-0.685192 0.318137,-0.09191 0.386922,0.358321 0.1455,0.952371 -0.126684,0.311724 -0.273672,0.809095 -0.326637,1.105267 -0.05297,0.296173 -0.268816,0.83126 -0.47967,1.18908 -0.210853,0.35782 -0.732637,1.24589 -1.159521,1.973492 -0.426885,0.727602 -0.776154,1.493639 -0.776154,1.702308 0,0.37671 0.0045,0.375501 0.63009,-0.170991 0.346548,-0.302712 0.708564,-0.550387 0.804477,-0.550387 0.236389,0 0.559302,1.011694 0.559302,1.752299 0,0.416324 0.121579,0.733142 0.392654,1.023199 0.215959,0.231082 0.445335,0.570715 0.509719,0.754736 0.06438,0.184024 0.250759,0.398592 0.414161,0.476819 0.457432,0.218996 0.755923,2.690016 0.454092,3.759117 -0.157993,0.559614 -0.557345,0.516464 -0.687801,-0.07432 -0.2765,-1.25217 -0.744565,-1.895094 -1.379673,-1.895094 -0.533091,0 -1.856853,1.163771 -1.879779,1.652585 -0.0664,1.415828 -0.133143,1.814316 -0.465647,2.780223 -0.206093,0.598687 -0.329831,1.193147 -0.274979,1.32102 0.105274,0.245413 0.248676,0.241038 2.975911,-0.09078 1.081749,-0.131615 3.550138,-0.884635 4.11223,-1.254498 0.33241,-0.218731 1.519759,-2.443934 1.427323,-2.674941 -0.06981,-0.174462 0.152329,-0.80243 0.718414,-2.030881 0.348701,-0.756707 0.721207,-3.229841 0.568478,-3.774201 -0.07694,-0.274212 0.03449,-0.49399 0.471832,-0.930661 0.687911,-0.686848 1.283163,-1.844274 1.283163,-2.495013 0,-0.332109 0.148862,-0.601099 0.498468,-0.900723 0.277288,-0.237646 0.498468,-0.582372 0.498468,-0.776904 0,-0.192335 0.155293,-0.622001 0.345096,-0.954813 0.189801,-0.332811 0.451457,-1.061443 0.581458,-1.619182 0.130001,-0.557741 0.316126,-1.20174 0.413613,-1.43111 0.09749,-0.229371 0.206652,-0.919394 0.242587,-1.533385 0.07099,-1.21281 0.259915,-1.928227 0.649763,-2.460469 0.137583,-0.187837 0.406881,-1.153848 0.598443,-2.146692 C 40.362929,7.4991585 40.215013,4.9193191 39.5326,3.9479972 39.353784,3.6934791 39.345524,3.5767797 39.496746,3.4415063 c 0.295219,-0.2640885 0.575219,0.011098 1.270019,1.2481982 1.001002,1.7822938 1.322313,4.8508279 0.629242,6.0092845 -0.09247,0.154554 -0.291657,1.981678 -0.442646,4.060274 -0.15099,2.078596 -0.304999,3.82337 -0.342241,3.877275 -0.03724,0.05391 -0.07719,0.858588 -0.08876,1.788184 -0.01565,1.256213 -0.08391,1.753975 -0.265876,1.93866 -0.219244,0.222519 -0.19996,0.274781 0.184552,0.500158 0.610126,0.357613 0.517846,1.258427 -0.20866,2.03689 -0.211705,0.226848 -0.206745,0.410057 0.04025,1.486348 0.347553,1.514506 0.842509,3.070978 1.288426,4.051669 0.185855,0.408747 0.411023,1.010717 0.500372,1.337714 0.173346,0.634405 0.10552,3.720373 -0.08553,3.891274 -0.209517,0.187425 -0.412359,-0.167523 -0.587514,-1.028085 -0.09546,-0.468976 -0.437969,-1.36463 -0.761145,-1.990344 -0.323176,-0.625715 -0.587594,-1.321098 -0.587594,-1.545299 0,-0.452771 -0.306098,-0.585417 -1.358995,-0.588913 -0.597186,-0.0019 -0.617317,0.0165 -0.872316,0.80118 -0.143564,0.441765 -0.261024,0.973702 -0.261024,1.182085 0,0.431057 -0.28473,1.090277 -0.631918,1.463045 -0.230041,0.246989 -0.216972,0.673193 0.0566,1.845695 0.119601,0.512604 -0.164775,1.119573 -0.931918,1.989073 -0.252439,0.286123 -0.842502,1.173078 -1.311251,1.971012 -0.743016,1.264809 -0.872599,1.617308 -1.01085,2.749745 -0.08722,0.714425 -0.237713,1.633382 -0.334433,2.042128 -0.410954,1.73673 -0.699287,2.699943 -0.91897,3.069946 -0.427504,0.720028 -0.322056,0.918555 0.439361,0.827196 0.37048,-0.04445 0.650868,-0.03652 0.623084,0.01761 -0.02778,0.05413 -0.377061,0.583717 -0.776168,1.176846 -0.704529,1.047026 -0.720249,1.097619 -0.540007,1.73794 0.251224,0.892489 0.233415,1.441181 -0.05889,1.8145 -0.5268,0.672802 -1.091933,3.188868 -1.262976,5.622996 -0.09198,1.309035 -0.209378,2.77696 -0.260873,3.262046 -0.05337,0.502793 -0.01039,1.130485 0.09997,1.460023 0.235507,0.703167 0.03313,1.00228 -0.678115,1.00228 -0.550435,0 -0.540164,-0.05072 -0.225566,1.114773 0.132396,0.490491 0.241887,1.142626 0.243314,1.449182 0.0018,0.372776 0.114001,0.643534 0.338961,0.817493 0.824017,0.637208 1.215268,1.041882 1.515964,1.567953 0.794312,1.389645 1.793333,0.987078 5.233822,-2.10904 0.993357,-0.893923 1.055481,-0.9263 1.055481,-0.550002 0,0.219913 -0.122203,0.611228 -0.27156,0.869602 -0.370011,0.64007 -3.991906,3.867894 -4.713112,4.200314 -0.328023,0.151187 -1.091016,0.297615 -1.750202,0.335878 -1.048892,0.0609 -1.21917,0.03119 -1.661558,-0.289866 -0.271095,-0.196731 -0.700021,-0.437878 -0.953165,-0.535881 -0.253146,-0.098 -0.528866,-0.339586 -0.612714,-0.536868 -0.08384,-0.197281 -0.456197,-0.511405 -0.827443,-0.69805 -0.374138,-0.188104 -0.674993,-0.451549 -0.674993,-0.591068 0,-0.505803 -0.39784,-0.601885 -1.148615,-0.277394 -0.387256,0.16737 -0.866709,0.283598 -1.06545,0.258279 -0.44836,-0.05712 -0.445847,-0.354674 0.01671,-1.978282 0.438346,-1.538635 0.61824,-2.898384 0.383451,-2.898384 -0.223418,0 -1.426286,2.132543 -1.592921,2.824069 -0.209778,0.870541 -0.860871,2.045379 -1.629593,2.940435 -0.401394,0.46736 -1.14649,1.353553 -1.655769,1.969316 -1.019122,1.232196 -4.293695,4.305599 -4.587428,4.305599 -0.101822,0 -0.185134,-0.06314 -0.185134,-0.140403 z M 26.581012,36.314185 c 0,-0.07918 -0.112155,-0.105476 -0.249234,-0.05841 -0.137079,0.04705 -0.249234,0.111841 -0.249234,0.143971 0,0.03213 0.112155,0.05841 0.249234,0.05841 0.137079,0 0.249234,-0.06479 0.249234,-0.143971 z M 207.02617,69.020929 c -0.92578,-0.163508 -5.15083,-2.52093 -5.15083,-2.873984 0,-0.09333 -1.02645,-1.066909 -2.281,-2.163512 -1.66584,-1.456116 -2.51492,-2.086357 -3.14834,-2.33695 -0.48086,-0.190231 -1.22284,-0.671519 -1.6652,-1.080113 -0.43882,-0.405339 -1.10935,-0.90949 -1.49005,-1.120327 -0.8846,-0.489909 -0.95669,-0.607011 -0.63983,-1.039611 0.19653,-0.268301 0.23399,-0.555434 0.15297,-1.172223 -0.1056,-0.803609 -0.13773,-0.844018 -1.97895,-2.488445 l -1.87163,-1.67158 -1.09907,-0.05985 -1.09908,-0.05985 v 0.446975 c 0,0.872007 -0.68957,0.424198 -1.97493,-1.282508 -0.37775,-0.501587 -0.79824,-0.994697 -0.93442,-1.095798 -0.13618,-0.1011 -0.24761,-0.384038 -0.24761,-0.628738 0,-0.473168 -0.26287,-1.282444 -1.00238,-3.085923 -1.42906,-3.48508 -3.25436,-6.539932 -3.90766,-6.539932 -0.31026,0 -0.30494,0.373141 0.0174,1.21923 0.15278,0.401109 0.23754,1.033635 0.2077,1.549984 l -0.0505,0.872339 -0.6252,-1.709301 c -0.34387,-0.940115 -0.62427,-1.784825 -0.62309,-1.877133 0.008,-0.620359 -2.252,-3.782202 -3.21337,-4.495947 -0.52245,-0.387879 -0.40382,0.1469 0.31992,1.442088 0.41456,0.741888 0.79409,1.603057 0.84339,1.913704 0.0493,0.310647 0.28278,1.032018 0.51882,1.603046 0.23605,0.571027 0.48287,1.273326 0.54848,1.560666 0.33085,1.448855 1.86109,4.877509 2.66694,5.975538 l 0.84922,1.157094 0.25629,2.083957 c 0.14096,1.146178 0.20742,2.127668 0.14771,2.181092 -0.21483,0.19217 -0.74361,-0.428108 -1.09051,-1.279188 -0.49113,-1.204945 -0.73084,-1.354078 -1.33884,-0.832987 -0.69606,0.59655 -1.12985,1.840043 -1.23739,3.547136 -0.0738,1.17106 -0.1536,1.509215 -0.4034,1.7093 -0.1713,0.13719 -0.40201,0.538883 -0.51268,0.892652 -0.16382,0.523625 -0.311,0.684247 -0.79164,0.863895 -0.89325,0.333876 -1.04493,0.2164 -0.80626,-0.62444 0.10967,-0.386408 0.16426,-0.87686 0.12128,-1.089883 -0.10105,-0.501025 -2.87228,-2.91414 -4.466,-3.888888 -1.39679,-0.854299 -1.51544,-0.986219 -1.1197,-1.245077 0.27993,-0.183109 0.27695,-0.202523 -0.0555,-0.361695 -0.19324,-0.09251 -0.56941,-0.168199 -0.83593,-0.168199 -0.67983,0 -1.55704,-0.288526 -1.93047,-0.634946 -0.17395,-0.161369 -0.69734,-0.446007 -1.16309,-0.632519 -0.80196,-0.321158 -1.59151,-0.950448 -2.39773,-1.911076 -0.41482,-0.494243 -0.4561,-1.0799 -0.10535,-1.494712 0.4214,-0.498418 0.27409,-1.41904 -0.58435,-3.651478 -0.45556,-1.184716 -0.82941,-2.37856 -0.83078,-2.652986 -0.006,-1.209004 -1.06316,-4.277731 -1.93191,-5.608132 -0.30745,-0.470826 -0.39676,-0.824214 -0.39676,-1.569906 0,-0.658125 -0.10505,-1.156795 -0.33232,-1.577585 -0.18276,-0.338403 -0.3323,-0.677774 -0.3323,-0.754155 0,-0.07639 -0.30309,-0.544887 -0.67353,-1.041121 -0.5597,-0.749783 -0.6566,-0.984969 -0.57341,-1.391809 0.11401,-0.557641 -0.36819,-1.960228 -0.90635,-2.636307 -0.41736,-0.524326 -0.41913,-0.62806 -0.0224,-1.316731 0.64649,-1.122204 0.81618,-2.098006 0.59013,-3.393496 -0.22585,-1.294262 0.5529,-0.802361 1.18122,0.746135 0.38073,0.938291 0.38514,1.001577 0.15223,2.186581 -0.23549,1.198161 -0.19448,1.917681 0.10931,1.917681 0.0844,0 0.21187,-0.141139 0.2832,-0.313643 0.12672,-0.306431 0.13636,-0.304537 0.41976,0.08237 0.15953,0.217807 0.39735,0.897599 0.52847,1.510653 0.25005,1.16908 0.47935,1.693316 0.74065,1.693316 0.17852,0 0.66258,-0.780237 0.66398,-1.070221 4.9e-4,-0.106241 0.0815,-0.452764 0.17997,-0.77004 0.23191,-0.747172 0.42353,-0.573897 1.13104,1.022769 0.28979,0.653994 0.61095,1.322102 0.71368,1.484685 0.10462,0.165571 0.20198,1.11364 0.22136,2.155206 0.0305,1.638861 0.0952,2.018387 0.54501,3.197312 0.28075,0.735743 0.73942,1.787723 1.01926,2.337735 0.27984,0.550012 0.5088,1.167694 0.5088,1.372626 0,0.204933 0.18692,0.949626 0.41538,1.654875 0.22847,0.705247 0.4154,1.527448 0.4154,1.827109 0,0.299662 0.10137,0.676773 0.22527,0.838023 0.1239,0.16125 0.35834,0.661054 0.52097,1.110675 0.16264,0.44962 0.40777,1.018149 0.54472,1.263395 0.35553,0.636622 5.1538,4.830636 5.52662,4.830636 0.16971,0 0.51837,-0.161503 0.77477,-0.358892 0.38803,-0.298704 0.47308,-0.491878 0.50722,-1.151921 0.0226,-0.436167 0.0852,-1.171771 0.13915,-1.634678 0.0845,-0.724718 0.0499,-0.884756 -0.24872,-1.151921 -0.21879,-0.195719 -0.34684,-0.501227 -0.34684,-0.827486 0,-0.284466 -0.10405,-0.769387 -0.23122,-1.077601 -0.26057,-0.631538 -1.60102,-4.409299 -2.51937,-7.100322 -0.67222,-1.9698 -1.2056,-2.90736 -1.92448,-3.38281 -0.5816,-0.384649 -0.63186,-1.022132 -0.14628,-1.855494 0.45587,-0.782379 0.66746,-1.91183 0.66746,-3.562871 0,-1.352701 0.0175,-1.418808 0.48569,-1.837648 0.26711,-0.238961 0.55551,-0.434472 0.64087,-0.434472 0.0853,0 0.19594,0.531772 0.24574,1.181715 0.0498,0.649943 0.19977,1.368964 0.33329,1.597824 0.78497,1.345606 2.16984,3.371015 2.87685,4.207517 0.44969,0.532039 1.0793,1.36811 1.39916,1.857935 0.62735,0.960751 1.42225,1.69572 4.67271,4.320488 1.30418,1.053117 2.17705,1.877099 2.30818,2.178855 0.61203,1.408594 3.11691,5.580507 3.7006,6.163419 0.19359,0.19334 0.29237,0.448212 0.24137,0.62275 -0.0647,0.221426 0.0817,0.399674 0.58451,0.71137 0.55366,0.343224 0.88512,0.425587 1.89656,0.471276 l 1.22562,0.05536 0.61831,0.689591 c 0.34008,0.379279 1.35549,1.34814 2.25649,2.153033 1.8764,1.676263 2.22098,1.725739 1.55064,0.222651 -0.23129,-0.518603 -0.47342,-1.143572 -0.53808,-1.388823 -0.24515,-0.929852 -0.87909,-2.551223 -1.23749,-3.164983 -0.26803,-0.459005 -0.34618,-0.784062 -0.27842,-1.157707 0.0724,-0.399049 1e-4,-0.643605 -0.31174,-1.054688 -0.22329,-0.294347 -0.406,-0.631793 -0.406,-0.749878 0,-0.275166 -3.71247,-3.683461 -4.50429,-4.135248 -0.32981,-0.18817 -0.89496,-0.413264 -1.25591,-0.500211 -0.49764,-0.119875 -0.72058,-0.278749 -0.92243,-0.657373 -0.14638,-0.274609 -0.70277,-0.823483 -1.23643,-1.219714 -1.91245,-1.419998 -2.7149,-2.190812 -2.7149,-2.6079 0,-0.340253 -0.0855,-0.407018 -0.62309,-0.486504 -0.34269,-0.05067 -0.81441,-0.09287 -1.04825,-0.09376 -0.90208,-0.0034 -1.06765,-0.287742 -1.09788,-1.885041 -0.0549,-2.903174 -0.29303,-5.153695 -0.59834,-5.655385 -0.28602,-0.469983 -0.28448,-0.482627 0.0851,-0.699244 0.20701,-0.121334 0.83754,-0.316849 1.40121,-0.434476 0.56367,-0.117629 1.12407,-0.266994 1.24535,-0.331923 0.67155,-0.359534 1.30051,-0.913234 1.30052,-1.14491 0,-0.146114 0.26457,-0.404764 0.58943,-0.576215 0.60792,-0.320864 1.40444,-1.482751 1.40444,-2.04867 0,-0.336127 0.45625,-0.635827 1.3561,-0.890802 0.33461,-0.09482 0.65004,-0.269483 0.70095,-0.388152 0.0638,-0.148759 0.35037,-0.215764 0.92276,-0.215764 0.69168,0 0.9282,0.07697 1.41754,0.461303 0.75835,0.595623 0.74502,0.759275 -0.0393,0.483647 -0.90588,-0.318315 -1.46289,-0.09599 -1.69549,0.67675 -0.0984,0.32687 -0.36387,0.790939 -0.58991,1.031267 -0.49204,0.523086 -0.5098,0.686584 -0.10255,0.943001 0.16969,0.106822 0.58094,0.562092 0.91392,1.011712 0.66123,0.892883 1.78825,2.329142 2.68917,3.427016 0.33704,0.410715 0.57538,0.876414 0.57643,1.126261 0.002,0.234295 0.11198,0.750873 0.24666,1.147949 0.30812,0.908506 0.11546,3.549568 -0.28507,3.907859 -0.22242,0.198972 -0.26215,0.120177 -0.36133,-0.716787 -0.0613,-0.517183 -0.26984,-1.567205 -0.46345,-2.333382 -0.3348,-1.324785 -0.40171,-1.442996 -1.36534,-2.412304 -0.84104,-0.845986 -1.10168,-1.019767 -1.53315,-1.022266 -0.42564,-0.0025 -0.55833,0.08013 -0.73227,0.455752 -0.18329,0.39582 -0.27154,0.44473 -0.64325,0.356469 -0.74254,-0.176321 -2.08296,-0.235208 -2.30651,-0.101326 -0.16653,0.09974 -0.17255,0.224607 -0.027,0.561822 0.1067,0.24724 0.163,1.003893 0.13105,1.760642 l -0.056,1.32707 0.91386,0.668599 c 0.50262,0.36773 0.91432,0.773836 0.91488,0.902453 0,0.185003 0.19706,0.233853 0.93948,0.233853 0.84633,0 0.97625,0.04377 1.32367,0.445905 0.73722,0.85334 2.19094,2.155205 2.40663,2.155205 0.1194,0 0.75271,0.401314 1.40739,0.891809 0.65466,0.490495 1.29104,0.891809 1.41418,0.891809 0.12313,0 0.80561,0.421915 1.51659,0.93759 0.71098,0.515674 1.63409,1.084208 2.05134,1.263409 0.52226,0.224292 0.87689,0.514011 1.1381,0.929757 0.20869,0.332164 0.80876,0.992779 1.33347,1.468031 0.89297,0.808792 2.50216,2.787722 2.50216,3.077078 0,0.07141 0.19079,0.463725 0.424,0.871822 l 0.42399,0.74199 -1.29631,-1.20625 c -0.71298,-0.663437 -1.50194,-1.317114 -1.75325,-1.452616 -0.25131,-0.135502 -0.45693,-0.341204 -0.45693,-0.45712 0,-0.336013 -0.31384,-0.41984 -0.84081,-0.224582 -0.60968,0.22591 -0.6184,0.483139 -0.0656,1.933757 0.7067,1.854493 1.75797,5.053184 2.07439,6.311761 0.16443,0.65399 0.46097,1.523508 0.65896,1.932251 0.198,0.408744 0.60986,1.378589 0.91524,2.155204 0.30538,0.776619 0.67627,1.713013 0.82421,2.080886 0.14796,0.367871 0.60845,1.268768 1.0233,2.001999 0.56867,1.005086 0.73081,1.438161 0.65886,1.759944 -0.0795,0.355525 0.076,0.637849 0.93107,1.690658 0.59378,0.731062 1.54525,1.649595 2.25706,2.17888 2.54472,1.892207 2.49342,1.823988 1.20038,1.595622 z m -52.62634,-8.497617 c -0.68629,-0.18142 -3.34466,-1.689329 -4.53125,-2.570252 -0.50261,-0.373149 -1.50934,-1.098195 -2.23716,-1.611208 -0.72783,-0.513014 -1.4183,-1.099967 -1.5344,-1.30434 -0.11608,-0.204371 -0.45838,-0.839789 -0.76065,-1.412029 -0.96316,-1.823409 -2.27871,-3.8478 -2.84945,-4.384732 -0.30413,-0.286122 -0.65613,-0.720879 -0.78224,-0.966125 -0.1809,-0.351819 -0.35173,-0.455981 -0.80966,-0.493662 -0.31922,-0.02626 -0.64432,-0.103524 -0.72246,-0.171677 -0.0781,-0.06815 -0.15727,-0.553114 -0.17585,-1.077683 -0.0242,-0.682762 -0.13725,-1.103529 -0.39794,-1.480851 -0.45394,-0.657052 -0.45539,-0.868363 -0.009,-1.375492 0.31379,-0.356874 0.333,-0.468087 0.16655,-0.965038 -0.12243,-0.365579 -0.13507,-0.711762 -0.0362,-0.991556 0.34251,-0.969193 0.34781,-2.878704 0.0118,-4.274976 -0.17958,-0.746418 -0.47413,-2.134586 -0.65454,-3.084818 -0.18043,-0.950235 -0.44199,-2.020406 -0.58126,-2.378157 -0.2994,-0.769074 -0.32607,-1.373828 -0.0788,-1.787127 0.14367,-0.240154 0.10072,-0.407867 -0.21636,-0.84488 -0.21759,-0.299886 -0.48302,-0.814075 -0.58984,-1.14264 -0.10681,-0.328567 -0.30072,-0.727706 -0.43091,-0.886978 -0.22946,-0.280714 -0.25201,-0.274936 -0.73611,0.188648 -0.57447,0.550128 -0.62536,0.565579 -0.76794,0.233184 -0.064,-0.149304 0.14794,-0.628405 0.54258,-1.226237 0.35623,-0.539655 0.7055,-1.148147 0.77614,-1.352207 0.0707,-0.20406 0.22207,-0.438159 0.33651,-0.520222 0.11445,-0.08207 0.24856,-0.517077 0.29804,-0.966698 0.0495,-0.44962 0.19266,-1.218805 0.31815,-1.7093 0.19385,-0.757819 0.19344,-1.070465 -0.002,-2.080888 -0.12702,-0.653994 -0.37811,-1.481429 -0.55798,-1.83875 -0.17987,-0.357318 -0.28803,-0.684556 -0.24037,-0.727195 0.3457,-0.309253 1.62869,2.018653 2.06952,3.755024 0.18678,0.735742 0.39038,1.88952 0.45246,2.563951 0.11475,1.247147 0.39735,1.705053 0.39735,0.643855 0,-0.320312 0.0453,-0.687797 0.1005,-0.816639 0.15915,-0.371023 0.39798,-0.117201 0.39798,0.422979 0,0.634456 0.35058,1.515705 0.92849,2.333933 0.25199,0.356774 0.55834,1.075663 0.68079,1.597533 0.29898,1.27422 1.14381,2.664959 1.84307,3.034028 0.54611,0.288235 1.6342,1.637663 2.36148,2.928639 0.39547,0.702005 0.78082,1.103632 2.92352,3.047014 l 1.31104,1.189078 0.0546,-0.48994 c 0.0306,-0.274844 -0.0894,-0.764253 -0.27361,-1.114761 -0.18054,-0.343651 -0.45193,-1.187302 -0.60307,-1.874776 -0.15115,-0.687477 -0.4561,-1.757648 -0.67766,-2.378158 -0.22156,-0.620512 -0.40379,-1.467693 -0.40495,-1.882627 -0.002,-0.594891 -0.0834,-0.822762 -0.38669,-1.077602 -0.21151,-0.177748 -0.50618,-0.323178 -0.65482,-0.323178 -0.43194,0 -0.49166,-0.245099 -0.28117,-1.15406 0.12666,-0.546983 0.3689,-1.027487 0.6759,-1.340746 0.26318,-0.268529 0.4785,-0.575869 0.4785,-0.682979 0,-0.107113 0.14954,-0.315805 0.33231,-0.463769 0.24583,-0.199016 0.33231,-0.457791 0.33231,-0.994392 0,-0.41766 0.11393,-0.880911 0.26856,-1.092031 0.19878,-0.271373 0.25107,-0.612449 0.20126,-1.312373 -0.0587,-0.82618 -0.16388,-1.075056 -0.83134,-1.969105 -0.76124,-1.019689 -1.13388,-1.597051 -1.13388,-1.7568 0,-0.455448 1.88508,0.876058 2.32946,1.645394 0.13525,0.234148 0.4842,0.809268 0.77544,1.278045 0.29124,0.468777 0.78889,1.505504 1.10588,2.303838 0.317,0.798336 0.69426,1.733354 0.83837,2.077817 0.31052,0.742202 0.22688,1.022665 -0.34314,1.150647 -0.3439,0.07721 -0.3994,0.154341 -0.30373,0.42216 0.0643,0.180228 0.19386,0.662116 0.28774,1.070862 0.0939,0.408746 0.27335,0.995349 0.39882,1.303563 0.12548,0.308215 0.22813,0.814661 0.22813,1.125443 0,0.310778 0.1052,0.861232 0.23376,1.223228 0.49633,1.397561 0.92769,2.81249 1.42411,4.671317 0.28381,1.062739 0.62506,2.27256 0.75833,2.68849 0.13327,0.415931 0.24246,0.951016 0.24266,1.18908 1.7e-4,0.238061 0.22848,0.819983 0.5073,1.293154 0.40104,0.680609 0.53618,1.146319 0.6469,2.229522 0.077,0.753066 0.29728,1.764156 0.48955,2.246871 0.45654,1.146226 1.58851,2.612868 2.90555,3.764563 1.08078,0.94511 1.47972,1.55322 2.51372,3.831785 0.85521,1.884563 1.13149,2.900589 0.92247,3.392385 -0.30733,0.723108 -0.69223,0.447138 -1.00244,-0.718778 -0.28064,-1.05479 -0.61251,-1.740329 -1.21082,-2.501223 -0.18179,-0.231185 -0.53785,-0.799711 -0.79125,-1.263396 -0.62929,-1.151526 -1.39685,-2.05888 -2.03709,-2.408092 -0.56888,-0.310285 -1.44884,-0.395206 -1.44884,-0.139825 0,0.0842 0.3313,0.719616 0.73624,1.412036 0.40493,0.69242 0.70402,1.258942 0.66462,1.258942 -0.0394,0 -0.20247,-0.104699 -0.3624,-0.232669 -0.15992,-0.127971 -0.54766,-0.378795 -0.86164,-0.557381 -0.33087,-0.188204 -0.74998,-0.639215 -0.99692,-1.072828 -0.61625,-1.082044 -1.76863,-2.553693 -2.69521,-3.441919 -0.66736,-0.639736 -0.80537,-0.868111 -0.80839,-1.337714 -0.002,-0.311452 -0.14931,-0.853361 -0.32733,-1.204238 -0.40952,-0.807169 -5.00093,-4.996201 -6.24408,-5.696886 -0.53669,-0.302493 -1.00852,-0.709328 -1.18597,-1.022579 -0.42592,-0.751936 -0.7229,-1.040443 -1.07098,-1.040443 -0.38482,0 -0.41908,0.766433 -0.0713,1.594817 0.1294,0.308212 0.2726,0.849844 0.31824,1.203623 0.0457,0.353777 0.20144,0.76036 0.34625,0.903513 0.341,0.337055 0.33718,1.032269 -0.008,1.373007 -0.16108,0.159222 -0.33464,0.736247 -0.42826,1.423734 -0.0865,0.635801 -0.19627,1.437388 -0.24377,1.781309 -0.0819,0.592724 -0.0401,0.669286 0.80211,1.46932 0.48867,0.464208 1.46757,1.208153 2.17534,1.653215 0.70776,0.445061 1.34332,0.887934 1.41232,0.984165 0.069,0.09623 0.52874,0.494343 1.02163,0.884695 0.9862,0.781028 2.94318,3.010724 3.40255,3.876697 0.57687,1.087474 0.229,1.115343 -0.70376,0.0564 -0.48604,-0.55181 -0.94268,-1.003287 -1.01474,-1.003287 -0.0721,0 -0.43294,-0.357719 -0.80195,-0.794926 -0.36901,-0.437208 -1.06961,-1.03078 -1.55691,-1.319046 -1.1835,-0.700135 -3.97879,-2.08042 -4.06214,-2.005858 -0.0364,0.03267 0.29742,0.489282 0.74206,1.014704 0.96406,1.139213 1.787,2.514319 2.17359,3.632038 0.25751,0.744524 0.49572,0.996792 2.77254,2.936189 2.69408,2.29482 4.38006,3.277504 5.9543,3.470533 0.45035,0.0552 0.7423,0.162194 0.70664,0.258937 -0.0776,0.210415 -1.85774,0.263745 -2.56478,0.07684 z M 140.62077,27.428589 c 0.0421,-0.06131 -0.10874,-0.412462 -0.33513,-0.780333 l -0.41165,-0.668856 0.11487,0.668856 c 0.12803,0.745477 0.1951,0.89181 0.40885,0.89181 0.0806,0 0.18097,-0.05017 0.22306,-0.111477 z M 48.056644,59.985753 c -0.479776,-0.126501 -0.872319,-0.288317 -0.872319,-0.359598 0,-0.07128 0.474787,-0.1296 1.055084,-0.1296 0.894579,0 1.153662,-0.06397 1.703096,-0.420399 0.810653,-0.525906 1.59856,-1.324523 2.361221,-2.393304 0.324906,-0.455315 0.863992,-1.137825 1.19797,-1.516689 0.333979,-0.378862 0.69776,-1.01428 0.808402,-1.412035 0.110644,-0.39775 0.272319,-0.928594 0.359281,-1.179642 0.257376,-0.743031 0.205461,-0.848711 -0.880361,-1.792029 -1.355822,-1.177878 -1.97143,-1.541706 -2.608619,-1.541706 -0.332584,0 -0.669851,-0.132342 -0.929743,-0.364831 -0.465618,-0.416518 -0.503048,-0.635949 -0.179324,-1.051286 0.305941,-0.392522 0.934577,-2.475508 0.934577,-3.096724 0,-0.27301 0.07384,-0.6903 0.164092,-0.927309 0.09545,-0.250645 0.112824,-0.835111 0.04154,-1.397052 l -0.122554,-0.966127 -0.673452,-0.04427 c -0.616251,-0.04051 -0.764427,0.02935 -1.744635,0.822463 -0.589151,0.476705 -1.4573,1.137229 -1.929219,1.467831 -1.136748,0.796348 -2.826627,2.46101 -3.529083,3.476423 -0.311047,0.44962 -0.740974,1.055186 -0.955397,1.345702 -0.214422,0.290517 -0.38986,0.699533 -0.38986,0.908923 0,0.350532 -0.375359,0.899731 -0.99874,1.461287 -0.367494,0.331045 -2.490531,4.821544 -2.490531,5.267797 0,0.209158 0.03978,0.380284 0.08841,0.380284 0.266799,0 1.346096,-0.495222 1.798144,-0.82506 0.287484,-0.209759 0.986139,-0.648237 1.552565,-0.974394 0.588233,-0.33872 1.187992,-0.828964 1.398604,-1.143241 0.514997,-0.768472 1.467855,-1.813616 1.65347,-1.813616 0.303522,0 0.145399,0.461628 -0.547298,1.597785 -0.526373,0.86335 -1.146874,1.54659 -2.476703,2.727127 -1.10351,0.979617 -1.93725,1.862697 -2.205171,2.335655 -0.23694,0.418271 -0.590695,0.837048 -0.786123,0.930606 -0.514345,0.246246 -1.355283,0.07584 -2.204251,-0.446681 -0.407431,-0.250763 -0.802083,-0.458201 -0.877005,-0.460971 -0.07492,-0.0028 -0.435298,-0.134275 -0.80084,-0.292227 -0.365543,-0.157953 -0.808941,-0.289452 -0.985329,-0.292227 -0.176387,-0.0028 -0.679157,-0.222422 -1.117267,-0.488105 -0.948528,-0.575221 -1.01727,-0.92544 -0.320914,-1.634915 0.266318,-0.271335 0.536777,-0.743974 0.60102,-1.050307 0.09755,-0.46519 0.357708,-0.739806 1.578774,-1.666533 1.181624,-0.896799 1.517196,-1.24505 1.749974,-1.816089 0.579346,-1.421218 0.871017,-1.930203 1.644277,-2.869388 0.929905,-1.129439 1.418748,-1.944174 1.418748,-2.364569 0,-0.604478 -0.42411,-0.35681 -3.447731,2.013365 -1.384856,1.08557 -1.052535,0.236401 0.565175,-1.444171 0.443084,-0.460304 1.317016,-1.379983 1.94207,-2.043729 0.625054,-0.663749 1.2324,-1.206814 1.349658,-1.206814 0.117258,0 0.71729,-0.369627 1.333403,-0.82139 0.616116,-0.451766 1.260233,-0.888428 1.431376,-0.970363 0.338066,-0.161848 1.225051,-1.338109 1.877339,-2.489599 0.225573,-0.398207 0.674832,-1.034221 0.998356,-1.413367 0.323526,-0.379146 0.634897,-0.874917 0.691938,-1.101714 0.214139,-0.851409 0.739938,-1.94284 1.605779,-3.333198 1.362336,-2.187622 1.599413,-3.09887 0.806225,-3.09887 -0.65701,0 -0.515993,-0.325694 0.564833,-1.304532 1.127655,-1.021249 2.047422,-2.243482 2.392829,-3.179715 0.232252,-0.629522 1.347039,-1.815077 1.347238,-1.43276 7e-5,0.138237 -0.07464,0.292677 -0.166027,0.343201 -0.191107,0.105658 -0.229628,1.413104 -0.04154,1.409925 0.06854,-0.0012 0.569346,-0.377126 1.112907,-0.835481 0.543559,-0.458357 1.197797,-0.898708 1.453863,-0.978562 0.278525,-0.08685 0.465573,-0.253172 0.465573,-0.413972 0,-0.15252 0.361946,-0.501398 0.836757,-0.806546 0.90724,-0.583055 2.206728,-2.210846 2.714557,-3.400362 0.338204,-0.792187 0.768739,-0.938819 0.768739,-0.26182 0,0.522694 -0.717153,2.616897 -1.250559,3.651834 -1.527534,2.963797 -2.850483,6.678514 -2.665711,7.485068 0.04947,0.21592 0.127026,0.76045 0.172362,1.210071 0.223789,2.219517 0.429301,2.602136 1.165785,2.170459 0.227891,-0.133573 0.638798,-0.592963 0.913128,-1.020867 0.42782,-0.667315 0.499007,-0.722736 0.500344,-0.389547 0.0031,0.779319 -0.337193,1.95273 -0.826613,2.850125 -0.275592,0.505322 -0.501075,1.083568 -0.501075,1.284992 0,0.247716 -0.270864,0.593711 -0.837038,1.069211 -0.809439,0.679806 -0.844565,0.743767 -1.065341,1.939827 -0.125566,0.680263 -0.232558,1.470942 -0.23776,1.757064 -0.0052,0.286123 -0.08489,1.423179 -0.177076,2.526792 -0.0922,1.103614 -0.124602,2.326255 -0.07202,2.716981 0.06171,0.458596 0.02365,0.787966 -0.107397,0.929207 -0.166453,0.179416 -0.04587,0.422111 0.669929,1.348367 l 0.872918,1.129566 -0.187728,1.01687 c -0.103251,0.559281 -0.187728,1.426417 -0.187728,1.926976 0,1.039683 -0.136848,1.33972 -0.964246,2.114073 -0.325951,0.305064 -0.560115,0.581398 -0.52036,0.614082 0.03976,0.0327 0.316636,0.02612 0.615294,-0.01455 0.427597,-0.05824 0.868307,-0.389323 2.073462,-1.557646 1.262432,-1.22386 1.521991,-1.555788 1.482166,-1.895427 -0.02655,-0.226456 0.143247,-0.833391 0.377337,-1.348742 0.234086,-0.51535 0.425614,-1.003825 0.425614,-1.085503 0,-0.08168 0.192282,-0.578445 0.427284,-1.103924 0.235008,-0.525481 0.500936,-1.366801 0.590941,-1.869598 0.09002,-0.502798 0.271585,-1.062319 0.403496,-1.243378 0.151102,-0.207405 0.239836,-0.714003 0.239836,-1.369295 0,-0.696731 0.116627,-1.318934 0.353265,-1.88472 0.542558,-1.297188 0.653399,-2.505204 0.28861,-3.145269 -0.164337,-0.288349 -0.2574,-0.584197 -0.206795,-0.657435 0.160869,-0.232844 -0.292834,-0.566045 -0.770751,-0.566045 -0.470242,0 -2.231599,0.87509 -3.368951,1.673789 -1.409204,0.9896 -0.674229,-0.298753 0.826583,-1.448941 0.53199,-0.407705 1.101335,-0.890137 1.265224,-1.072076 0.16546,-0.183684 0.57187,-0.37145 0.913856,-0.422209 0.338737,-0.05027 0.943737,-0.185547 1.344437,-0.300601 0.400707,-0.115053 0.886711,-0.174149 1.080018,-0.131323 0.668398,0.148088 0.953055,-0.685434 1.345228,-3.939153 0.162342,-1.346886 0.294836,-1.897294 0.486946,-2.022955 0.360797,-0.236003 0.331307,-0.759507 -0.06839,-1.214064 -0.182767,-0.207854 -0.332308,-0.524808 -0.332308,-0.704343 0,-0.19418 -0.164719,-0.405284 -0.406574,-0.521074 -0.5406,-0.258811 -0.654072,-0.574284 -0.343474,-0.954943 0.140318,-0.171971 0.440392,-0.560946 0.666829,-0.864393 0.226444,-0.303446 0.810324,-0.779822 1.297516,-1.058611 1.446877,-0.827958 2.083297,-1.413571 3.214001,-2.957397 1.052365,-1.436866 2.159983,-2.370796 3.604155,-3.03897 0.817812,-0.378375 0.690752,-0.08864 -0.425176,0.969573 -0.80421,0.762607 -1.301178,1.426886 -1.943906,2.598326 -0.474905,0.865584 -0.907914,1.827432 -0.962232,2.137438 l -0.09877,0.563648 0.378854,-0.29727 c 0.208374,-0.163498 0.557027,-0.548091 0.774779,-0.854649 0.454033,-0.639186 0.74839,-0.698844 1.097357,-0.222412 0.134945,0.184233 0.58166,0.485218 0.992704,0.668857 1.009055,0.450806 3.345455,0.467811 5.031002,0.03662 1.438971,-0.368116 2.170448,-0.383752 2.313852,-0.04947 0.05845,0.136294 0.02907,0.316885 -0.06532,0.401314 -0.319379,0.2857 -0.181348,0.539958 0.293125,0.539958 0.919565,0 4.519946,-2.482905 4.519946,-3.117059 0,-0.132252 -0.371777,-0.494084 -0.826175,-0.804071 -1.06957,-0.729658 -1.832309,-1.512579 -1.832309,-1.880802 0,-0.388791 0.242917,-0.368214 0.893506,0.07569 0.296465,0.202282 1.192908,0.603597 1.992102,0.891809 1.763993,0.636157 3.35911,0.714199 4.568003,0.223494 0.919723,-0.373327 1.224409,-0.369845 1.61727,0.01848 0.173866,0.171868 0.540614,0.413603 0.814987,0.53719 0.27438,0.123588 0.702306,0.394938 0.95097,0.603002 0.476991,0.399115 1.455217,0.522317 3.881114,0.488806 0.555555,-0.0077 1.331349,0.08743 1.723986,0.21136 1.75279,0.55321 2.89001,0.10359 3.94581,-1.560048 0.3875,-0.610608 0.78985,-1.135628 0.89409,-1.166712 0.25537,-0.07614 0.0568,1.499093 -0.36241,2.874767 -0.17387,0.570603 -0.31611,1.253484 -0.31611,1.517516 0,0.369483 -0.15346,0.607061 -0.66616,1.031417 -0.36639,0.303244 -0.86663,0.924632 -1.11167,1.380863 -0.24504,0.456228 -0.744668,1.081867 -1.110272,1.390305 -0.609312,0.514029 -0.642577,0.580628 -0.398935,0.798576 0.413008,0.36946 1.760977,0.608061 3.005487,0.531994 0.96153,-0.05877 1.16959,-0.122068 1.3899,-0.422862 0.57516,-0.785227 1.12558,-0.194393 0.95114,1.020963 -0.0616,0.429274 -0.39867,1.35389 -0.74901,2.054706 -0.9265,1.853353 -1.20472,3.026815 -1.21321,5.117089 -0.009,2.309734 0.38161,3.845275 1.05889,4.158577 0.28879,0.133592 0.65818,0.57616 1.01918,1.221127 0.35195,0.628777 0.95921,1.362675 1.6047,1.939322 0.57115,0.510251 1.03847,1.00163 1.03847,1.091954 0,0.09032 -0.28807,0.456971 -0.64013,0.814769 -0.35208,0.357798 -0.92811,1.091039 -1.28008,1.629422 -0.35198,0.538383 -0.89025,1.192302 -1.19615,1.453153 -0.30592,0.26085 -0.67411,0.67493 -0.81824,0.920176 -0.97923,1.666394 -1.44987,2.136258 -2.78575,2.781197 -0.726156,0.350573 -1.623398,0.864715 -1.993867,1.142538 -0.742149,0.556551 -2.058857,1.154223 -2.835341,1.286998 -0.275104,0.04702 -0.723725,0.0045 -0.996933,-0.09472 l -0.496743,-0.180243 0.585381,-0.164048 c 1.145405,-0.320984 2.42183,-1.11218 3.568521,-2.211956 1.710852,-1.640866 2.094652,-2.20872 2.938662,-4.34802 0.6725,-1.704562 0.73913,-1.980901 0.55554,-2.30384 -0.11472,-0.201826 -0.25983,-0.666432 -0.32247,-1.032459 -0.0626,-0.366029 -0.43857,-1.268985 -0.83546,-2.006571 -0.39687,-0.737586 -0.76517,-1.607039 -0.818433,-1.93212 -0.117366,-0.716282 -0.494442,-1.196704 -1.402671,-1.787102 -0.879544,-0.571746 -1.011409,-0.983105 -0.567077,-1.768963 0.529568,-0.936601 0.891218,-2.68232 0.834418,-4.027796 l -0.05015,-1.189079 -0.552646,-0.04742 c -0.440826,-0.03782 -0.58728,-0.136221 -0.723667,-0.486202 -0.226055,-0.580083 -0.597257,-0.739508 -1.362425,-0.585132 -0.869357,0.175398 -1.900289,0.849564 -2.501522,1.635857 -0.78093,1.021293 -1.351647,1.489464 -1.815717,1.489464 -0.514688,0 -0.578378,0.0893 -0.882788,1.237701 -0.180504,0.680961 -0.213955,1.33125 -0.129765,2.522329 0.09266,1.310732 0.06831,1.651208 -0.132777,1.857935 -0.135415,0.139211 -0.318251,0.453768 -0.40629,0.699017 -0.200451,0.558418 -0.629162,0.643393 -1.128583,0.223693 -0.380206,-0.319526 -0.386125,-0.319832 -0.490592,-0.02541 -0.05815,0.163909 0.04694,0.832908 0.233529,1.486663 0.186594,0.653757 0.341912,1.478491 0.345156,1.832741 0.003,0.354252 0.219635,1.338445 0.480884,2.187097 0.438502,1.424498 0.456626,1.582313 0.235929,2.054818 -0.131484,0.281498 -0.284313,0.945299 -0.339618,1.475114 -0.104512,1.00118 -0.510271,1.689949 -0.99555,1.689949 -0.197903,0 -0.234106,-0.109681 -0.159451,-0.48306 0.05314,-0.265683 0.143935,-1.151925 0.201796,-1.969415 l 0.105222,-1.486348 -0.743876,-1.412031 c -0.409135,-0.776626 -0.932164,-1.567538 -1.162293,-1.757593 -0.305231,-0.252091 -0.448861,-0.563657 -0.531025,-1.151921 -0.06188,-0.4435 -0.149549,-0.806366 -0.194674,-0.806366 -0.371725,0 -0.760795,0.447919 -1.127798,1.298386 -0.48989,1.135213 -1.579055,2.231159 -3.418606,3.43988 -1.739598,1.143049 -2.575496,1.53006 -3.190526,1.477187 -0.547086,-0.04703 -0.54542,-0.04894 1.030505,-1.17973 0.868163,-0.622942 1.853391,-1.408849 2.189407,-1.746459 0.336008,-0.337611 0.675044,-0.613836 0.753412,-0.613836 0.249389,0 0.712605,-0.846977 0.712605,-1.302957 0,-0.241777 0.299081,-0.959718 0.664626,-1.595423 0.365543,-0.635705 0.664624,-1.337627 0.664624,-1.559825 0,-0.232777 0.246242,-0.692485 0.58101,-1.084686 0.353085,-0.413663 0.655163,-0.989982 0.770032,-1.469123 0.103959,-0.433638 0.294538,-0.932492 0.423503,-1.108564 0.343997,-0.469646 0.126872,-1.094782 -0.38023,-1.094782 -0.21856,0 -0.397382,0.05246 -0.397382,0.116587 0,0.06412 -0.242998,0.244705 -0.540001,0.401292 -1.260149,0.664375 -3.223351,2.696959 -5.08311,5.262743 -0.540943,0.746315 -0.610418,0.795555 -0.663338,0.470117 -0.03579,-0.220099 0.240285,-0.894452 0.699765,-1.709303 0.417382,-0.740183 0.8708,-1.632589 1.007606,-1.983125 0.136805,-0.350536 0.494053,-0.852413 0.793889,-1.115283 1.077955,-0.945061 2.65104,-2.57138 3.161244,-3.268219 0.294566,-0.402331 0.861944,-0.89856 1.308279,-1.144232 0.70333,-0.38713 0.797468,-0.502598 0.874977,-1.073189 0.216625,-1.594822 0.255225,-3.332869 0.103136,-4.64484 -0.176804,-1.525264 -0.07032,-1.927336 0.557655,-2.10563 0.729115,-0.207011 -0.269873,-2.030032 -1.290722,-2.355395 -0.477785,-0.152277 -0.893797,-0.01123 -1.108329,0.375813 -0.521227,0.940352 -1.310752,2.686133 -1.407117,3.111399 -0.08365,0.369186 -0.38564,0.73846 -1.040139,1.27191 -0.994026,0.810185 -1.054338,1.186914 -0.171445,1.070999 0.83441,-0.109551 0.794142,0.126963 -0.27172,1.595914 -1.774956,2.446212 -2.093341,3.085757 -3.77217,7.577257 -0.767335,2.052891 -0.823493,2.299063 -0.720573,3.158752 0.08342,0.696828 0.03991,1.125378 -0.172111,1.696491 l -0.283722,0.76414 0.614267,0.461836 0.614274,0.461834 -0.468418,0.385089 c -0.715842,0.588492 -1.561628,0.992123 -2.296131,1.09576 -0.58651,0.08276 -1.436907,0.380827 -2.492337,0.873592 -0.182769,0.08533 -0.831878,0.376953 -1.442461,0.648046 -0.610574,0.271093 -1.333837,0.692998 -1.607239,0.937568 -0.273401,0.24457 -0.604297,0.444673 -0.735326,0.444673 -0.131028,0 -0.716245,0.320952 -1.300483,0.71323 -2.762794,1.855024 -3.300127,2.213696 -4.385368,2.927262 -0.639701,0.420614 -1.764023,1.167026 -2.498496,1.658703 -0.734466,0.491678 -1.68844,1.001567 -2.119942,1.13309 -0.431499,0.131521 -1.222283,0.51381 -1.757296,0.849524 -0.924018,0.579813 -1.045479,0.613699 -2.424484,0.676364 -1.349926,0.06134 -1.47599,0.09471 -1.797624,0.475783 -0.638826,0.756889 -2.023392,1.843257 -2.807478,2.202824 -0.427615,0.196097 -0.82457,0.424698 -0.882124,0.508005 -0.137536,0.199074 -0.4821,0.176117 -1.538893,-0.102522 z M 37.870546,54.893212 c 0.273531,-0.13095 0.839835,-1.138157 0.839835,-1.49369 0,-0.314091 -0.657611,-0.121679 -1.065242,0.311681 -0.408959,0.434771 -0.559335,1.012572 -0.319389,1.22722 0.14473,0.129465 0.187319,0.125931 0.544796,-0.04522 z m 28.661426,-7.599396 c 0.83944,-0.443054 0.756341,-0.944167 -0.184495,-1.112491 -0.461797,-0.08262 -0.527484,-0.04577 -0.697897,0.391529 -0.413047,1.059917 -0.156678,1.269383 0.882392,0.720962 z m 2.465319,-2.251999 c 0.388085,-0.347433 1.287711,-0.998728 1.999173,-1.447319 1.67584,-1.056646 1.848287,-1.244308 2.096861,-2.281827 0.114362,-0.477358 0.468404,-1.358574 0.78676,-1.958255 0.579387,-1.091364 1.197489,-2.922401 1.343008,-3.978483 0.0491,-0.356538 0.25231,-0.718425 0.555755,-0.989871 0.469877,-0.420325 0.473808,-0.437508 0.223164,-0.974132 l -0.255151,-0.546261 0.797365,-0.818138 c 0.438554,-0.449975 0.902235,-0.962658 1.0304,-1.139295 0.128173,-0.176636 0.445946,-0.599632 0.706164,-0.939994 0.260225,-0.340361 0.46989,-0.708232 0.46593,-0.817492 -0.0037,-0.10926 -0.447567,-0.454708 -0.985805,-0.767665 -0.960791,-0.558655 -1.00224,-0.567855 -2.277441,-0.505467 -1.601335,0.07834 -2.707652,0.349196 -3.06789,0.751093 -0.25003,0.278932 -0.33245,0.289541 -0.954416,0.122846 -0.48146,-0.129039 -0.775025,-0.137317 -1.002799,-0.02827 -0.375589,0.179815 -0.43996,0.339034 -0.670545,1.658626 -0.09456,0.541149 -0.273573,1.243449 -0.3978,1.560666 -0.124227,0.317216 -0.278296,0.893434 -0.342375,1.280483 -0.06809,0.411234 -0.239598,0.781898 -0.412658,0.891809 -0.588019,0.373453 -0.730819,0.832925 -0.538223,1.731767 0.09835,0.45896 0.224397,1.284981 0.28012,1.835604 0.09762,0.964612 0.07709,1.040521 -0.562579,2.080887 -1.570409,2.554131 -1.952949,5.238496 -0.8164,5.728784 0.7559,0.326082 1.258893,0.212852 1.999382,-0.450093 z M 50.218107,37.341381 c 0.921869,-0.594528 1.351225,-1.096665 1.681057,-1.966022 0.286003,-0.753828 0.376568,-2.930344 0.12193,-2.930344 -0.08134,0 -0.464806,0.685578 -0.852136,1.523506 -0.387328,0.837929 -0.956316,1.992301 -1.264418,2.565269 -0.785534,1.460828 -0.768273,1.505287 0.313567,0.807591 z M 93.389516,29.16661 c 0.552325,-0.335522 1.279841,-0.878939 1.616716,-1.207597 0.336875,-0.328657 0.713002,-0.67442 0.835846,-0.768363 0.122837,-0.09394 0.393107,-0.321299 0.600597,-0.505236 0.207492,-0.183934 0.462142,-0.334428 0.565891,-0.334428 0.103757,0 0.188643,-0.05929 0.188643,-0.131758 0,-0.07247 -0.336861,-0.176947 -0.748591,-0.232177 -0.411724,-0.05523 -0.953803,-0.196185 -1.204627,-0.313232 -0.270673,-0.126309 -0.937921,-0.213181 -1.641559,-0.213726 -1.092088,-8.96e-4 -1.207697,0.02936 -1.466898,0.383242 -0.154765,0.211287 -0.377405,0.696208 -0.494764,1.077602 -0.117351,0.381395 -0.314319,1.012499 -0.437702,1.402455 -0.222274,0.702483 -0.219807,0.712934 0.267953,1.135446 0.270756,0.234542 0.587227,0.401996 0.703286,0.372124 0.116051,-0.02987 0.662898,-0.328831 1.215209,-0.664352 z m -2.007753,-7.423303 c 0,-0.08176 -0.153957,-0.148635 -0.342121,-0.148635 -0.188164,0 -0.295905,0.06688 -0.239434,0.148635 0.05643,0.08175 0.210436,0.148634 0.342129,0.148634 0.131678,0 0.239426,-0.06688 0.239426,-0.148634 z m 43.643577,35.276004 c -0.26058,-0.233101 -0.0671,-0.509372 0.55608,-0.793734 0.71266,-0.325237 1.48779,-1.164487 1.81242,-1.962346 0.10945,-0.269015 0.35134,-0.747732 0.53753,-1.063817 0.29811,-0.506092 0.3247,-0.730951 0.22274,-1.883372 l -0.11578,-1.308669 -1.26214,-1.01501 c -1.66438,-1.338486 -3.30328,-2.426903 -3.65539,-2.427595 -0.38936,-7.03e-4 -1.30829,-0.520003 -1.49748,-0.846141 -0.0855,-0.147435 -0.20899,-0.834159 -0.27436,-1.526051 -0.12151,-1.286246 -0.54141,-3.009261 -1.08735,-4.461948 -0.28936,-0.769943 -0.9793,-1.486331 -1.43318,-1.488116 -0.1032,-4.45e-4 -0.94875,0.580558 -1.87901,1.29103 -1.75097,1.337266 -3.1016,2.762608 -3.26332,3.443841 -0.0513,0.215761 -0.16272,0.545932 -0.24777,0.733714 -0.085,0.187782 -0.15467,0.623734 -0.15467,0.968783 0,0.427458 -0.13492,0.804989 -0.42346,1.184823 -0.3767,0.495912 -0.44024,0.781272 -0.57541,2.58437 -0.0836,1.114798 -0.11291,2.083408 -0.0652,2.152466 0.15129,0.219001 0.92299,0.135809 1.45985,-0.157368 0.28493,-0.15561 0.83818,-0.367481 1.22944,-0.470824 0.88783,-0.23451 1.4077,-0.692311 1.94943,-1.716702 0.23256,-0.439732 0.48946,-0.799512 0.57091,-0.799512 0.0814,0 0.19627,0.19626 0.25517,0.436134 0.15883,0.6469 -0.77769,2.483706 -1.55498,3.049772 -1.15442,0.840728 -1.84881,1.60033 -1.84881,2.022415 0,0.235128 -0.11211,0.443753 -0.26703,0.496931 -0.41433,0.142223 -1.4011,-0.152667 -2.30185,-0.687893 -1.45438,-0.864198 -1.97833,-1.138269 -3.20493,-1.67645 -0.66249,-0.290665 -1.44757,-0.715856 -1.74464,-0.944862 -0.29707,-0.229 -0.67096,-0.458999 -0.83089,-0.5111 -0.35302,-0.11501 -0.3718,-0.664589 -0.0362,-1.061436 0.13417,-0.158685 0.24394,-0.537518 0.24394,-0.841852 0,-0.501874 0.0984,-0.62333 1.05742,-1.306024 l 1.05743,-0.75269 0.0826,-1.033072 c 0.0615,-0.769193 0.21585,-1.26203 0.60415,-1.929443 0.51727,-0.889105 0.73433,-2.246266 0.35926,-2.246266 -0.27488,0 -2.3966,1.330406 -2.57616,1.615368 -0.31636,0.502062 -1.2397,1.415498 -1.34008,1.325704 -0.0549,-0.04916 0.0178,-0.292937 0.16157,-0.541722 0.14381,-0.248785 0.26149,-0.531152 0.26149,-0.627479 0,-0.226959 1.23337,-1.865047 1.83769,-2.440729 0.25746,-0.245247 0.54612,-0.631039 0.64146,-0.857315 0.0972,-0.230659 0.37544,-0.47941 0.63329,-0.566183 0.25295,-0.08513 0.91166,-0.417142 1.4638,-0.737818 1.10125,-0.639582 1.65334,-1.410419 1.83237,-2.558377 0.12109,-0.776441 0.3949,-1.448652 0.59008,-1.448652 0.0803,0 0.146,-0.354494 0.146,-0.787765 0,-0.43327 0.0934,-0.87784 0.20769,-0.987931 0.16616,-0.160135 0.16616,-0.179189 0,-0.09527 -0.31492,0.159047 -0.25992,-0.459762 0.13348,-1.501826 0.23047,-0.610492 0.32481,-1.186251 0.29077,-1.774447 -0.0486,-0.838588 -0.0689,-0.873532 -0.54886,-0.946869 -0.725,-0.11075 -0.73707,-0.587193 -0.0326,-1.290104 0.78212,-0.780482 1.04762,-1.309488 1.17864,-2.348413 0.12539,-0.99427 0.51893,-1.694404 0.80738,-1.436374 0.0978,0.08747 0.19064,0.646421 0.20637,1.242126 0.0418,1.581431 0.0661,1.751961 0.24954,1.751961 0.0913,0 0.16616,-0.338575 0.16616,-0.752391 V 23.9544 l 1.77952,-1.555647 c 1.92366,-1.681645 2.04695,-1.885765 2.30356,-3.813933 0.0625,-0.470056 0.16913,-0.85465 0.23683,-0.85465 0.0678,0 0.22629,0.317708 0.35239,0.706016 0.23585,0.726205 0.24912,1.603418 0.10391,6.874361 -0.0845,3.068339 -0.18804,2.65965 1.33506,5.270831 1.17547,2.015222 1.36392,2.136867 2.11651,1.366238 0.30708,-0.314447 0.63764,-0.527879 0.73456,-0.474292 0.19801,0.109474 0.22667,1.48401 0.0688,3.298369 -0.094,1.079115 -0.14793,1.229217 -0.49289,1.369818 -0.59309,0.241733 -0.63574,0.749449 -0.17194,2.046771 0.22973,0.642542 0.64926,1.870556 0.93231,2.728923 1.6463,4.992439 1.62592,4.948392 2.96644,6.409818 1.22006,1.330104 1.24526,1.374887 1.73337,3.080919 0.74847,2.616052 0.74741,2.57305 0.0793,3.238382 -0.31682,0.315534 -0.76621,0.908127 -0.99862,1.316876 -0.48213,0.847924 -1.47729,1.766114 -2.16519,1.99772 -0.52598,0.177091 -1.33069,0.208448 -1.49843,0.05839 z m -13.76631,-8.055677 c 0.30241,-0.17154 0.19902,-1.432183 -0.11746,-1.432183 -0.12721,0 -0.38163,0.180107 -0.56534,0.400237 -0.31655,0.379277 -0.31947,0.420145 -0.0556,0.780333 0.29962,0.409059 0.40037,0.44339 0.73844,0.251613 z m 6.48522,-14.497887 c 0.0832,-0.04603 0.27316,-0.313282 0.42203,-0.593905 0.22754,-0.428953 0.24091,-0.636487 0.0839,-1.302952 -0.10272,-0.436002 -0.25541,-0.869258 -0.33927,-0.962788 -0.0839,-0.09353 -0.19771,-0.511567 -0.25298,-0.928967 -0.0657,-0.496935 -0.17852,-0.758913 -0.32656,-0.758913 -0.23257,0 -0.30045,0.321529 -0.23948,1.134425 0.0192,0.256061 -0.0821,0.972263 -0.22508,1.591559 -0.143,0.619295 -0.26,1.358241 -0.26,1.642104 0,0.501527 0.0139,0.512536 0.49306,0.389616 0.27118,-0.06957 0.56117,-0.164152 0.64441,-0.210179 z m -16.42371,18.026625 c -0.66903,-0.238646 -1.15237,-0.727728 -1.86702,-1.889186 -0.36889,-0.599526 -0.76982,-1.124069 -0.89097,-1.165654 -0.39009,-0.133905 -0.41723,-0.59045 -0.0805,-1.354581 0.28538,-0.64767 0.33523,-1.174666 0.37768,-3.993105 0.0529,-3.51179 -0.0759,-7.186438 -0.26126,-7.454747 -0.0634,-0.0919 -0.15032,-0.888327 -0.19295,-1.769841 -0.0763,-1.578292 -0.0701,-1.612792 0.41196,-2.26066 0.50611,-0.68031 0.49444,-0.927823 -0.0633,-1.341927 -0.14207,-0.105475 -0.25831,-0.370859 -0.25831,-0.589746 0,-0.510657 -0.27939,-0.754703 -0.86401,-0.754703 -0.25587,0 -0.46524,-0.06493 -0.46524,-0.144288 0,-0.28716 1.06732,-1.490521 1.40182,-1.580505 0.18855,-0.05073 0.52974,-0.248372 0.75821,-0.439226 0.22846,-0.190851 0.68419,-0.44745 1.01274,-0.570216 0.3951,-0.147641 0.86792,-0.552901 1.39653,-1.196964 1.22261,-1.489701 1.57688,-1.289137 1.06103,0.600706 -0.17645,0.646409 -0.39173,1.837375 -0.47839,2.646592 -0.15453,1.44287 -0.1483,1.490266 0.32248,2.452475 0.38401,0.784851 0.45762,1.10013 0.36783,1.57571 -0.12826,0.679464 0.0525,6.418456 0.27015,8.576635 0.12032,1.19304 0.22205,1.54104 0.58886,2.014559 0.24389,0.314819 0.44344,0.652218 0.44344,0.749774 0,0.315397 -1.14297,1.320119 -2.07918,1.82769 -1.00383,0.544227 -1.12328,0.797443 -0.49664,1.05285 l 0.41499,0.169139 -0.577,0.350731 c -0.73952,0.449524 -0.91759,0.760752 -0.91759,1.603623 0,0.762409 0.59384,1.97436 1.29511,2.643101 0.38726,0.369302 0.39756,0.407839 0.10676,0.399323 -0.17702,-0.0051 -0.50875,-0.07608 -0.73717,-0.157559 z m -3.42127,-26.642944 c -0.0609,-0.141973 -0.0525,-0.572123 0.0186,-0.955889 0.0712,-0.383767 0.15106,-1.246955 0.17762,-1.918196 0.0471,-1.190894 0.0364,-1.229341 -0.44033,-1.588228 -0.26873,-0.202284 -0.48862,-0.512493 -0.48862,-0.689352 0,-0.577348 0.49301,-1.275225 1.07678,-1.524256 0.45465,-0.19394 0.58848,-0.353703 0.67475,-0.805474 0.22892,-1.198652 0.42087,-1.633305 0.9043,-2.047627 0.27563,-0.236211 0.50113,-0.486555 0.50113,-0.55632 0,-0.277114 0.74513,-1.006617 1.02818,-1.006617 0.40154,0 0.38622,0.401693 -0.0198,0.516944 -0.30219,0.0858 -0.6475,0.895962 -0.45519,1.067992 0.0475,0.04254 -0.0607,0.384428 -0.24056,0.759766 -0.23362,0.487555 -0.3131,0.939945 -0.27833,1.584183 0.047,0.870569 0.0651,0.903433 0.52568,0.950512 0.80715,0.08252 1.19635,-0.09143 1.6819,-0.751717 0.67734,-0.921072 2.04002,-1.991638 2.27152,-1.784562 0.13374,0.119645 -0.0242,0.454381 -0.58374,1.236627 -0.42191,0.589917 -0.81561,1.313353 -0.8749,1.607636 -0.14005,0.695149 -0.35927,1.060709 -0.83815,1.397675 -0.21395,0.150547 -0.389,0.358829 -0.389,0.462849 0,0.328401 -0.58756,0.681107 -1.13463,0.681107 -0.52457,0 -0.52694,0.0034 -0.52947,0.780333 -0.003,0.897984 -0.0221,0.929914 -0.91131,1.52126 -0.36555,0.243083 -0.86739,0.63941 -1.11523,0.880727 -0.39412,0.383775 -0.46446,0.406412 -0.56132,0.180627 z"
       id="path34"
       inkscape:connector-curvature="0" />
  </g>
</svg>
